<svg width="24" height="24" viewBox="0 0 24 24" fill="none" xmlns="http://www.w3.org/2000/svg">
<path d="M4.5 16.875C4.5 17.9062 5.17313 18.75 6 18.75C6.18098 18.7459 6.35925 18.7051 6.52396 18.63C6.68867 18.5549 6.83638 18.4471 6.95813 18.3131C7.02526 18.2383 7.10676 18.1777 7.19779 18.1349C7.28881 18.0922 7.3875 18.0682 7.48799 18.0644C7.58847 18.0606 7.6887 18.077 7.7827 18.1127C7.87671 18.1484 7.96258 18.2026 8.03521 18.2721C8.10784 18.3417 8.16574 18.4251 8.20547 18.5175C8.2452 18.6099 8.26595 18.7093 8.26649 18.8099C8.26702 18.9104 8.24733 19.0101 8.20858 19.1028C8.16983 19.1956 8.11282 19.2797 8.04094 19.35C7.7801 19.6313 7.46449 19.8562 7.11351 20.011C6.76252 20.1658 6.38358 20.2471 6 20.25C4.34531 20.25 3 18.7359 3 16.875C3 15.0141 4.34531 13.5 6 13.5C6.38358 13.5029 6.76252 13.5842 7.11351 13.739C7.46449 13.8938 7.7801 14.1187 8.04094 14.4C8.11282 14.4703 8.16983 14.5544 8.20858 14.6472C8.24733 14.7399 8.26702 14.8396 8.26649 14.9401C8.26595 15.0407 8.2452 15.1401 8.20547 15.2325C8.16574 15.3249 8.10784 15.4083 8.03521 15.4779C7.96258 15.5474 7.87671 15.6016 7.7827 15.6373C7.6887 15.673 7.58847 15.6894 7.48799 15.6856C7.3875 15.6818 7.28881 15.6578 7.19779 15.6151C7.10676 15.5723 7.02526 15.5117 6.95813 15.4369C6.83638 15.3029 6.68867 15.1951 6.52396 15.12C6.35925 15.0449 6.18098 15.0041 6 15C5.17313 15 4.5 15.8438 4.5 16.875ZM11.9625 16.0603C11.5875 15.9516 11.1994 15.84 10.9828 15.7003C10.8647 15.6244 10.8675 15.6066 10.8778 15.5222C10.8792 15.454 10.897 15.3872 10.9296 15.3273C10.9622 15.2674 11.0088 15.2163 11.0653 15.1781C11.4966 14.8856 12.5034 15.0159 12.9244 15.1256C13.1168 15.1762 13.3215 15.1483 13.4933 15.048C13.6652 14.9477 13.7902 14.7832 13.8408 14.5908C13.8914 14.3983 13.8635 14.1937 13.7632 14.0218C13.6629 13.8499 13.4984 13.725 13.3059 13.6744C13.1072 13.6228 11.3372 13.185 10.2281 13.9331C9.99326 14.0905 9.79592 14.2977 9.6501 14.5399C9.50428 14.7821 9.41356 15.0535 9.38437 15.3347C9.19687 16.8234 10.6631 17.2481 11.5406 17.5012C12.6722 17.8284 12.7716 17.9625 12.7388 18.2128C12.7097 18.4388 12.6206 18.5259 12.5381 18.5812C12.1069 18.8681 11.1159 18.7275 10.7053 18.615C10.5147 18.5644 10.3118 18.591 10.1405 18.6889C9.96933 18.7869 9.8436 18.9484 9.79059 19.1383C9.73757 19.3283 9.76154 19.5316 9.8573 19.704C9.95305 19.8765 10.1129 20.0042 10.3022 20.0597C10.7668 20.1815 11.245 20.2445 11.7253 20.2472C12.2719 20.2472 12.8784 20.1534 13.365 19.8291C13.6052 19.6695 13.807 19.4587 13.9559 19.2118C14.1049 18.9649 14.1973 18.6881 14.2266 18.4012C14.4375 16.7812 12.8887 16.3284 11.9625 16.0603ZM17.9625 16.0603C17.5875 15.9516 17.1994 15.84 16.9828 15.7003C16.8656 15.6244 16.8675 15.6066 16.8778 15.5222C16.8792 15.454 16.897 15.3872 16.9296 15.3273C16.9622 15.2674 17.0088 15.2163 17.0653 15.1781C17.4966 14.8856 18.5034 15.0159 18.9234 15.1256C19.1159 15.1762 19.3206 15.1483 19.4924 15.048C19.6643 14.9477 19.7892 14.7832 19.8398 14.5908C19.8904 14.3983 19.8625 14.1937 19.7622 14.0218C19.6619 13.8499 19.4974 13.725 19.305 13.6744C19.1072 13.6228 17.3362 13.185 16.2272 13.9331C15.9933 14.0911 15.797 14.2986 15.652 14.5407C15.507 14.7829 15.417 15.0539 15.3881 15.3347C15.2006 16.8234 16.6678 17.2481 17.5444 17.5012C18.675 17.8284 18.7744 17.9625 18.7425 18.2128C18.7134 18.4388 18.6244 18.5259 18.5409 18.5812C18.1097 18.8681 17.1197 18.7275 16.7091 18.615C16.5171 18.5615 16.3118 18.5865 16.1383 18.6845C15.9647 18.7824 15.8372 18.9452 15.7838 19.1372C15.7303 19.3291 15.7553 19.5345 15.8532 19.708C15.9511 19.8815 16.114 20.009 16.3059 20.0625C16.7709 20.1843 17.2493 20.2473 17.73 20.25C18.2756 20.25 18.8831 20.1562 19.3697 19.8319C19.6097 19.6722 19.8114 19.4614 19.9602 19.2145C20.109 18.9676 20.2013 18.6909 20.2303 18.4041C20.4375 16.7812 18.8887 16.3284 17.9616 16.0603H17.9625ZM3.75 10.5V3.75C3.75 3.35218 3.90804 2.97064 4.18934 2.68934C4.47064 2.40804 4.85218 2.25 5.25 2.25H14.25C14.3485 2.24992 14.4461 2.26926 14.5371 2.3069C14.6282 2.34454 14.7109 2.39975 14.7806 2.46938L20.0306 7.71938C20.1003 7.78908 20.1555 7.87182 20.1931 7.96286C20.2307 8.05391 20.2501 8.15148 20.25 8.25V10.5C20.25 10.6989 20.171 10.8897 20.0303 11.0303C19.8897 11.171 19.6989 11.25 19.5 11.25C19.3011 11.25 19.1103 11.171 18.9697 11.0303C18.829 10.8897 18.75 10.6989 18.75 10.5V9H14.25C14.0511 9 13.8603 8.92098 13.7197 8.78033C13.579 8.63968 13.5 8.44891 13.5 8.25V3.75H5.25V10.5C5.25 10.6989 5.17098 10.8897 5.03033 11.0303C4.88968 11.171 4.69891 11.25 4.5 11.25C4.30109 11.25 4.11032 11.171 3.96967 11.0303C3.82902 10.8897 3.75 10.6989 3.75 10.5ZM15 7.5H17.6887L15 4.81031V7.5Z" fill="#EEEEEE"/>
</svg>
