<svg width="32" height="32" viewBox="0 0 32 32" fill="none" xmlns="http://www.w3.org/2000/svg">
<path d="M31 16C31.0001 17.3845 30.5896 18.738 29.8204 19.8892C29.0513 21.0405 27.958 21.9378 26.6789 22.4676C25.3997 22.9975 23.9922 23.1361 22.6342 22.866C21.2763 22.5958 20.029 21.9291 19.05 20.95L19.0087 20.9062L11.515 12.4437C10.8134 11.7504 9.92242 11.28 8.95413 11.0918C7.98584 10.9036 6.98353 11.0061 6.07332 11.3862C5.16312 11.7664 4.38569 12.4073 3.83888 13.2282C3.29207 14.0492 3.0003 15.0136 3.0003 16C3.0003 16.9864 3.29207 17.9508 3.83888 18.7717C4.38569 19.5927 5.16312 20.2336 6.07332 20.6137C6.98353 20.9939 7.98584 21.0963 8.95413 20.9082C9.92242 20.72 10.8134 20.2496 11.515 19.5562L12.58 18.3537C12.6671 18.2552 12.7727 18.1749 12.8909 18.1172C13.009 18.0595 13.1373 18.0257 13.2686 18.0176C13.3998 18.0096 13.5313 18.0274 13.6556 18.0702C13.78 18.113 13.8946 18.1798 13.9931 18.2669C14.0916 18.3539 14.172 18.4596 14.2297 18.5777C14.2873 18.6959 14.3212 18.8242 14.3292 18.9554C14.3373 19.0867 14.3194 19.2182 14.2767 19.3425C14.2339 19.4668 14.1671 19.5815 14.08 19.68L12.9937 20.9062L12.9525 20.95C11.9735 21.9289 10.7262 22.5955 9.36837 22.8655C8.01053 23.1356 6.6031 22.9969 5.32406 22.4671C4.04501 21.9372 2.95181 21.04 2.18267 19.8889C1.41353 18.7378 1.00301 17.3844 1.00301 16C1.00301 14.6156 1.41353 13.2622 2.18267 12.1111C2.95181 10.9599 4.04501 10.0627 5.32406 9.5329C6.6031 9.00307 8.01053 8.8644 9.36837 9.13444C10.7262 9.40448 11.9735 10.0711 12.9525 11.05L12.9937 11.0937L20.4875 19.5562C21.1891 20.2496 22.0801 20.72 23.0484 20.9082C24.0167 21.0963 25.019 20.9939 25.9292 20.6137C26.8394 20.2336 27.6168 19.5927 28.1636 18.7717C28.7104 17.9508 29.0022 16.9864 29.0022 16C29.0022 15.0136 28.7104 14.0492 28.1636 13.2282C27.6168 12.4073 26.8394 11.7664 25.9292 11.3862C25.019 11.0061 24.0167 10.9036 23.0484 11.0918C22.0801 11.28 21.1891 11.7504 20.4875 12.4437L19.4225 13.6462C19.2466 13.8452 18.9989 13.9661 18.7339 13.9823C18.4689 13.9986 18.2083 13.909 18.0094 13.7331C17.8105 13.5572 17.6896 13.3096 17.6733 13.0445C17.657 12.7795 17.7466 12.5189 17.9225 12.32L19.0087 11.0937L19.05 11.05C20.029 10.0709 21.2763 9.40415 22.6342 9.13401C23.9922 8.86388 25.3997 9.0025 26.6789 9.53236C27.958 10.0622 29.0513 10.9595 29.8204 12.1107C30.5896 13.262 31.0001 14.6154 31 16Z" fill="#3E63DD"/>
</svg>
