<svg width="24" height="24" viewBox="0 0 24 24" fill="none" xmlns="http://www.w3.org/2000/svg">
<path d="M20.0306 7.71938L14.7806 2.46938C14.7109 2.39975 14.6282 2.34454 14.5371 2.3069C14.4461 2.26926 14.3485 2.24992 14.25 2.25H5.25C4.85218 2.25 4.47064 2.40804 4.18934 2.68934C3.90804 2.97064 3.75 3.35218 3.75 3.75V10.5C3.75 10.6989 3.82902 10.8897 3.96967 11.0303C4.11032 11.171 4.30109 11.25 4.5 11.25C4.69891 11.25 4.88968 11.171 5.03033 11.0303C5.17098 10.8897 5.25 10.6989 5.25 10.5V3.75H13.5V8.25C13.5 8.44891 13.579 8.63968 13.7197 8.78033C13.8603 8.92098 14.0511 9 14.25 9H18.75V20.25H16.5C16.3011 20.25 16.1103 20.329 15.9697 20.4697C15.829 20.6103 15.75 20.8011 15.75 21C15.75 21.1989 15.829 21.3897 15.9697 21.5303C16.1103 21.671 16.3011 21.75 16.5 21.75H18.75C19.1478 21.75 19.5294 21.592 19.8107 21.3107C20.092 21.0294 20.25 20.6478 20.25 20.25V8.25C20.2501 8.15148 20.2307 8.05391 20.1931 7.96286C20.1555 7.87182 20.1003 7.78908 20.0306 7.71938ZM15 4.81031L17.6897 7.5H15V4.81031ZM13.8572 18.4041C13.828 18.6909 13.7355 18.9677 13.5866 19.2146C13.4376 19.4615 13.2358 19.6723 12.9956 19.8319C12.5091 20.1562 11.9062 20.25 11.3559 20.25C10.8753 20.2473 10.3969 20.1843 9.93188 20.0625C9.7403 20.0089 9.57785 19.8814 9.48027 19.7081C9.3827 19.5347 9.35798 19.3297 9.41156 19.1381C9.46514 18.9465 9.59264 18.7841 9.76599 18.6865C9.93934 18.5889 10.1444 18.5642 10.3359 18.6178C10.7466 18.7303 11.7422 18.8709 12.1688 18.5841C12.2513 18.5287 12.3403 18.4416 12.3694 18.2156C12.4013 17.9653 12.3028 17.8313 11.1713 17.5041C10.2947 17.2509 8.8275 16.8263 9.015 15.3375C9.04425 15.0563 9.13499 14.785 9.28081 14.5428C9.42662 14.3006 9.62393 14.0934 9.85875 13.9359C10.9688 13.1859 12.7378 13.6256 12.9366 13.6772C13.129 13.7278 13.2935 13.8528 13.3938 14.0246C13.4941 14.1965 13.522 14.4011 13.4714 14.5936C13.4208 14.786 13.2958 14.9505 13.124 15.0508C12.9521 15.1511 12.7474 15.179 12.555 15.1284C12.1341 15.0187 11.1272 14.8884 10.6959 15.1809C10.6394 15.2191 10.5929 15.2702 10.5602 15.3301C10.5276 15.39 10.5098 15.4568 10.5084 15.525C10.4972 15.6094 10.4953 15.6272 10.6125 15.7031C10.8291 15.8428 11.2172 15.9544 11.5922 16.0631C12.5147 16.3284 14.0672 16.7812 13.8572 18.4041ZM7.5 14.25V17.8125C7.5 18.459 7.24319 19.079 6.78607 19.5361C6.32895 19.9932 5.70897 20.25 5.0625 20.25C4.41603 20.25 3.79605 19.9932 3.33893 19.5361C2.88181 19.079 2.625 18.459 2.625 17.8125C2.625 17.6136 2.70402 17.4228 2.84467 17.2822C2.98532 17.1415 3.17609 17.0625 3.375 17.0625C3.57391 17.0625 3.76468 17.1415 3.90533 17.2822C4.04598 17.4228 4.125 17.6136 4.125 17.8125C4.125 18.0611 4.22377 18.2996 4.39959 18.4754C4.5754 18.6512 4.81386 18.75 5.0625 18.75C5.31114 18.75 5.5496 18.6512 5.72541 18.4754C5.90123 18.2996 6 18.0611 6 17.8125V14.25C6 14.0511 6.07902 13.8603 6.21967 13.7197C6.36032 13.579 6.55109 13.5 6.75 13.5C6.94891 13.5 7.13968 13.579 7.28033 13.7197C7.42098 13.8603 7.5 14.0511 7.5 14.25Z" fill="#EEEEEE"/>
</svg>
