<svg width="59" height="32" viewBox="0 0 59 32" fill="none" xmlns="http://www.w3.org/2000/svg">
<g clip-path="url(#clip0_2_4)">
<path d="M0.0688477 21.8674H5.71736V3.23716H0.0688477V0.330322H9.31788V21.8674H14.9664V24.7742H0.0688477V21.8674ZM19.9414 24.7742V21.6031L30.3135 10.6364H20.3047V7.72955H34.3434V10.9006L23.9713 21.8674H34.6739V24.7742H19.9414ZM43.4144 31.777C42.9519 31.777 42.5225 31.6889 42.1261 31.5128C41.7298 31.3586 41.3334 31.1164 40.937 30.7861C40.5626 30.4557 40.1552 30.0373 39.7148 29.5308C39.2744 29.0464 38.7679 28.4628 38.1953 27.7801L36.4776 25.6991L38.889 23.8163L43.2162 28.8372L43.7447 28.705L46.7507 10.6034H41.003L41.4655 7.72955H47.2131L47.7416 4.55845C47.9398 3.36929 48.4463 2.36731 49.2611 1.55252C50.0759 0.73772 51.243 0.330322 52.7625 0.330322H58.5432L58.0807 3.20413H51.5073L50.7476 7.72955H57.354L56.8916 10.6034H50.2851L47.4443 27.615C47.2241 28.9142 46.7947 29.9272 46.1561 30.6539C45.5175 31.4027 44.6036 31.777 43.4144 31.777Z" fill="#EEEEEE"/>
</g>
<defs>
<clipPath id="clip0_2_4">
<rect width="58.8387" height="32" fill="white"/>
</clipPath>
</defs>
</svg>
