<svg width="24" height="24" viewBox="0 0 24 24" fill="none" xmlns="http://www.w3.org/2000/svg">
<path d="M18.3862 12C20.6972 8.7553 21.8756 5.40186 20.2369 3.76311C18.5981 2.12436 15.2447 3.3028 12 5.61373C8.7553 3.3028 5.40186 2.12436 3.76311 3.76311C2.12436 5.40186 3.3028 8.7553 5.61373 12C3.3028 15.2447 2.12436 18.5981 3.76311 20.2369C4.29092 20.7647 4.99592 21 5.81717 21C7.54967 21 9.79967 19.9528 12.0047 18.3862C14.2003 19.9528 16.4503 21 18.1875 21C19.0087 21 19.7147 20.7637 20.2415 20.2369C21.8756 18.5981 20.6972 15.2447 18.3862 12ZM19.1765 4.82342C19.8928 5.53967 19.409 7.86092 17.4403 10.7559C16.8175 9.98491 16.1544 9.24732 15.4537 8.54623C14.7526 7.84658 14.015 7.1844 13.244 6.56248C16.139 4.59373 18.4603 4.10623 19.1765 4.82342ZM16.5272 12C15.8638 12.8392 15.1513 13.6384 14.3934 14.3934C13.6384 15.1513 12.8392 15.8638 12 16.5272C11.1608 15.8638 10.3616 15.1513 9.60655 14.3934C8.84869 13.6384 8.13619 12.8392 7.4728 12C8.80377 10.3228 10.3228 8.80377 12 7.4728C12.8392 8.13619 13.6384 8.84869 14.3934 9.60655C15.1513 10.3616 15.8638 11.1608 16.5272 12ZM4.82342 4.82342C5.02967 4.61623 5.36998 4.50936 5.81905 4.50936C6.92717 4.50936 8.69623 5.15623 10.755 6.56248C9.98477 7.18491 9.24752 7.84706 8.54623 8.54623C7.84658 9.24739 7.1844 9.98498 6.56248 10.7559C4.59373 7.86092 4.10717 5.53967 4.82342 4.82342ZM4.82342 19.1765C4.10717 18.4603 4.59373 16.139 6.56248 13.244C7.18532 14.0151 7.84843 14.7526 8.54905 15.4537C9.24974 16.1528 9.98637 16.815 10.7559 17.4375C7.86092 19.4062 5.53967 19.8937 4.82342 19.1765ZM19.1765 19.1765C18.4603 19.8937 16.139 19.409 13.244 17.4403C14.0146 16.817 14.7522 16.1539 15.4537 15.4537C16.1534 14.7526 16.8156 14.015 17.4375 13.244C19.4062 16.139 19.8928 18.4603 19.1765 19.1765ZM13.125 12C13.125 12.2225 13.059 12.44 12.9354 12.625C12.8118 12.81 12.6361 12.9542 12.4305 13.0393C12.2249 13.1245 11.9987 13.1468 11.7805 13.1034C11.5623 13.06 11.3618 12.9528 11.2045 12.7955C11.0472 12.6381 10.94 12.4377 10.8966 12.2195C10.8532 12.0012 10.8755 11.775 10.9606 11.5695C11.0458 11.3639 11.19 11.1882 11.375 11.0646C11.56 10.941 11.7775 10.875 12 10.875C12.2984 10.875 12.5845 10.9935 12.7955 11.2045C13.0065 11.4155 13.125 11.7016 13.125 12Z" fill="#EEEEEE"/>
</svg>
