<svg width="116" height="32" viewBox="0 0 116 32" fill="none" xmlns="http://www.w3.org/2000/svg">
<path d="M16 32C24.8366 32 32 24.8366 32 16C32 7.16344 24.8366 0 16 0C7.16344 0 0 7.16344 0 16C0 24.8366 7.16344 32 16 32Z" fill="#EEEEEE"/>
<mask id="mask0_34_115" style="mask-type:alpha" maskUnits="userSpaceOnUse" x="0" y="0" width="32" height="32">
<path d="M16 32C24.8366 32 32 24.8366 32 16C32 7.16344 24.8366 0 16 0C7.16344 0 0 7.16344 0 16C0 24.8366 7.16344 32 16 32Z" fill="white"/>
</mask>
<g mask="url(#mask0_34_115)">
<path d="M18.652 35.446C16.8152 36.0182 12.7412 34.1529 11.2134 31.5894C11.1105 31.4121 11.3051 29.5009 11.4366 27.1721C11.5053 25.7531 11.551 24.1795 11.4939 22.7376C11.4939 22.44 20.649 24.5515 20.649 24.5515C20.2095 26.3762 19.9942 28.2477 20.0081 30.1246C20.0215 30.3173 20.0502 30.5086 20.094 30.6968C20.094 30.7254 20.094 30.754 20.094 30.794C20.3057 31.9213 20.6146 34.8051 18.652 35.446Z" fill="#EB9481"/>
<path d="M20.0596 30.7082C20.0596 30.7368 20.0596 30.7712 20.0596 30.8055C19.7554 30.8595 19.4473 30.8882 19.1383 30.8914C13.8055 31.0001 12.1175 24.397 11.7742 22.7204C13.3935 22.8806 20.5974 24.54 20.5974 24.54C20.1582 26.3667 19.9429 28.2402 19.9566 30.1189C19.9718 30.3183 20.0064 30.5156 20.0596 30.7082Z" fill="#263238"/>
<path d="M21.0267 6.21832C21.0267 6.21832 23.2411 7.75181 24.128 9.53705C25.0149 11.3223 24.4656 15.259 24.4656 15.259L21.0267 6.21832Z" fill="#263238"/>
<path d="M9.31383 11.574C8.5757 14.847 10.9503 23.9678 13.3822 25.879C16.9069 28.6254 22.3313 28.511 24.5743 24.3512C26.7544 20.3458 23.4299 8.48419 20.7634 6.80193C16.8096 4.30144 10.4067 6.73327 9.31383 11.574Z" fill="#EB9481"/>
<path d="M17.685 16.7124C17.685 16.7124 17.6392 16.7525 17.6507 16.7811C17.828 17.3876 17.9253 18.12 17.4218 18.4633C17.4218 18.4633 17.4218 18.5033 17.4218 18.4977C18.0913 18.2288 17.9483 17.2617 17.685 16.7124Z" fill="#263238"/>
<path d="M16.9698 16.2089C15.9628 16.3863 16.3976 18.3947 17.3246 18.2287C18.2515 18.0627 17.8166 16.0601 16.9698 16.2089Z" fill="#263238"/>
<path d="M21.3357 15.8998C21.3357 15.8998 21.3929 15.8998 21.3986 15.9456C21.5131 16.5693 21.7476 17.2673 22.3541 17.3532V17.3932C21.6503 17.439 21.3471 16.512 21.3357 15.8998Z" fill="#263238"/>
<path d="M21.7533 15.1331C22.7375 14.847 23.2411 16.8497 22.3255 17.1015C21.41 17.3533 20.9294 15.3792 21.7533 15.1331Z" fill="#263238"/>
<path d="M15.9798 15.4651C16.2373 15.3391 16.4548 15.1732 16.7008 15.0244C16.9469 14.8756 17.2101 14.7441 17.3474 14.4523C17.3766 14.3613 17.375 14.2633 17.343 14.1733C17.3109 14.0833 17.2501 14.0064 17.17 13.9545C16.9945 13.8761 16.8012 13.8458 16.6101 13.8669C16.419 13.888 16.237 13.9597 16.0829 14.0746C15.7349 14.2559 15.469 14.5627 15.339 14.9329C15.3185 15.0173 15.322 15.1057 15.3493 15.1881C15.3765 15.2705 15.4265 15.3437 15.4932 15.3992C15.56 15.4545 15.6411 15.4901 15.727 15.5018C15.8131 15.5135 15.9007 15.5007 15.9798 15.4651Z" fill="#263238"/>
<path d="M22.314 13.9601C22.0223 13.9601 21.7419 13.9601 21.473 13.9258C21.1745 13.9538 20.8751 13.8835 20.6204 13.7255C20.5505 13.6592 20.5042 13.5718 20.4888 13.4768C20.4733 13.3817 20.4894 13.2842 20.5345 13.199C20.6504 13.0465 20.8046 12.9275 20.9816 12.8541C21.1585 12.7807 21.3518 12.7555 21.5417 12.7813C21.9316 12.7728 22.3109 12.9094 22.6059 13.1647C22.6703 13.2271 22.7152 13.3069 22.7353 13.3943C22.7552 13.4817 22.7494 13.5731 22.7185 13.6573C22.6877 13.7414 22.633 13.8149 22.5612 13.8687C22.4894 13.9223 22.4035 13.9541 22.314 13.9601Z" fill="#263238"/>
<path d="M18.4174 22.4114C18.6005 22.5259 18.7893 22.6975 19.0181 22.6633C19.2495 22.6129 19.4666 22.5112 19.6533 22.3657C19.6533 22.3657 19.6991 22.3657 19.6877 22.3942C19.6245 22.5346 19.5248 22.6554 19.399 22.744C19.2732 22.8325 19.1259 22.8857 18.9724 22.8978C18.8384 22.8921 18.7091 22.8465 18.6012 22.767C18.4931 22.6876 18.4112 22.5777 18.3659 22.4515C18.3659 22.4515 18.3944 22.3942 18.4174 22.4114Z" fill="#263238"/>
<path d="M18.6749 20.4144C18.8861 20.6255 19.138 20.7913 19.4156 20.9015C19.693 21.0117 19.9901 21.064 20.2885 21.0553C20.549 21.0482 20.8072 21.004 21.0552 20.9237L21.1983 20.8779L21.3299 20.8264C21.3614 20.8128 21.3875 20.7891 21.4042 20.7592C21.4207 20.7291 21.4268 20.6944 21.4214 20.6605V20.5976V20.5403C21.3356 20.0597 21.1296 19.3445 21.1296 19.3445C21.3242 19.3902 22.3026 19.6019 22.2339 19.3445C21.7041 17.2031 20.9583 15.1212 20.0081 13.1304C19.9795 13.0674 19.8765 13.1304 19.8994 13.1705C20.3629 15.156 21.1755 17.0442 21.6789 19.0297C21.33 18.9505 20.9719 18.9198 20.6146 18.9382C20.5517 18.9725 21.0323 20.3171 21.0552 20.5403C20.6718 20.6636 20.2675 20.7084 19.8664 20.672C19.4653 20.6357 19.0756 20.5189 18.7207 20.3287C18.6635 20.3229 18.6235 20.3744 18.6749 20.4144Z" fill="#263238"/>
<path d="M20.7233 20.7406C20.5295 21.1307 20.2402 21.4653 19.8822 21.7133C19.6825 21.8453 19.4463 21.9114 19.207 21.9022C18.6806 21.9022 18.572 21.4272 18.5834 21.0152C18.5866 20.7986 18.6174 20.5832 18.6749 20.3744C19.3012 20.7118 20.019 20.8401 20.7233 20.7406Z" fill="#263238"/>
<path d="M19.8822 21.7134C19.6825 21.8454 19.4463 21.9115 19.207 21.9022C18.6806 21.9022 18.572 21.4272 18.5834 21.0153C18.8468 20.9688 19.1183 21.0123 19.3539 21.1389C19.5896 21.2656 19.7757 21.468 19.8822 21.7134Z" fill="#FF9BBC"/>
<path d="M10.544 19.4245C12.2606 19.1156 11.614 16.1288 11.614 16.1288C11.614 16.1288 14.9556 14.9443 14.475 10.4068C14.475 10.4068 19.785 11.185 21.8677 8.118C23.9505 5.05103 15.8826 -0.0128941 9.07343 7.5458C9.07343 7.5458 5.42855 8.91907 5.44 12.1233C5.45144 15.3277 8.43829 19.7965 10.544 19.4245Z" fill="#263238"/>
<path d="M14.2462 9.94902C14.2462 9.90897 14.1489 9.94902 14.1717 9.98908C15.3162 12.85 13.92 15.8769 10.7386 16.2832C10.7203 16.2881 10.7041 16.2988 10.6926 16.3138C10.681 16.3289 10.6748 16.3472 10.6748 16.3662C10.6748 16.3851 10.681 16.4035 10.6926 16.4186C10.7041 16.4335 10.7203 16.4443 10.7386 16.4492C13.9543 16.3633 16.2373 12.7012 14.2462 9.94902Z" fill="#263238"/>
<path d="M15.9283 3.62623C17.0191 3.52771 18.1185 3.59329 19.1899 3.82078C20.7806 4.23276 23.035 5.65751 22.3484 7.62015C21.4043 10.3152 17.6163 10.3552 15.2646 10.2065C15.2327 10.2004 15.1998 10.2072 15.1729 10.2255C15.1461 10.2437 15.1277 10.2719 15.1216 10.3037C15.1155 10.3356 15.1223 10.3686 15.1406 10.3954C15.1588 10.4222 15.187 10.4407 15.2189 10.4468C17.6678 11.019 22.4113 10.4067 22.7947 7.25394C23.2295 3.775 18.2686 3.24286 15.9283 3.62623Z" fill="#263238"/>
<path d="M12.2206 19.0412C12.2206 19.0412 9.85168 16.2546 8.56425 17.1244C7.2768 17.9941 9.26231 22.1769 10.9045 22.6175C11.1135 22.6918 11.3354 22.7229 11.5568 22.7085C11.7781 22.6942 11.9942 22.6349 12.1919 22.5342C12.3894 22.4335 12.5645 22.2935 12.7062 22.1229C12.8479 21.9522 12.9533 21.7545 13.0159 21.5418L12.2206 19.0412Z" fill="#EB9481"/>
<path d="M9.16504 18.3088C9.16504 18.3088 9.16504 18.3431 9.16504 18.3545C10.3094 18.6978 11.0075 19.6762 11.5168 20.712C11.444 20.6036 11.3482 20.5125 11.2363 20.4452C11.1244 20.3779 10.9992 20.336 10.8692 20.3223C10.7394 20.3087 10.6082 20.3237 10.4847 20.3663C10.3613 20.4089 10.2487 20.4781 10.1549 20.5689C10.1263 20.5689 10.1549 20.6376 10.1893 20.6261C10.3816 20.541 10.5959 20.519 10.8014 20.5632C11.007 20.6074 11.1934 20.7156 11.3337 20.8722C11.5624 21.1298 11.7619 21.4119 11.9288 21.7133C11.9859 21.8049 12.1633 21.7133 12.1119 21.6275C11.9974 20.1912 10.7272 18.3088 9.16504 18.3088Z" fill="#263238"/>
</g>
<path d="M48.5973 8.56532C47.9573 8.56532 47.4312 8.38042 47.0187 8.01065C46.6205 7.62665 46.4213 7.15732 46.4213 6.60265C46.4213 6.03376 46.6205 5.56442 47.0187 5.19465C47.4312 4.81065 47.9573 4.61865 48.5973 4.61865C49.2232 4.61865 49.7351 4.81065 50.1333 5.19465C50.5458 5.56442 50.752 6.03376 50.752 6.60265C50.752 7.15732 50.5458 7.62665 50.1333 8.01065C49.7351 8.38042 49.2232 8.56532 48.5973 8.56532ZM50.432 23.2427C50.432 24.7075 50.0622 25.76 49.3227 26.4C48.5832 27.0542 47.552 27.3813 46.2293 27.3813H44.8V24.288H45.6747C46.0729 24.288 46.3573 24.2098 46.528 24.0533C46.6987 23.8968 46.784 23.6408 46.784 23.2853V9.80265H50.432V23.2427Z" fill="#EEEEEE"/>
<path d="M58.4735 21.8774C57.3073 21.8774 56.2548 21.6285 55.3162 21.1307C54.3917 20.6329 53.6593 19.9218 53.1188 18.9974C52.5926 18.0729 52.3295 16.992 52.3295 15.7547C52.3295 14.5316 52.5997 13.4578 53.1402 12.5334C53.6806 11.5947 54.4202 10.8765 55.3588 10.3787C56.2975 9.8809 57.35 9.63202 58.5162 9.63202C59.6824 9.63202 60.7348 9.8809 61.6735 10.3787C62.6122 10.8765 63.3517 11.5947 63.8922 12.5334C64.4326 13.4578 64.7028 14.5316 64.7028 15.7547C64.7028 16.9778 64.4255 18.0587 63.8708 18.9974C63.3304 19.9218 62.5837 20.6329 61.6308 21.1307C60.6922 21.6285 59.6397 21.8774 58.4735 21.8774ZM58.4735 18.72C59.1704 18.72 59.7606 18.464 60.2442 17.952C60.742 17.44 60.9908 16.7076 60.9908 15.7547C60.9908 14.8018 60.749 14.0694 60.2655 13.5574C59.7962 13.0454 59.213 12.7894 58.5162 12.7894C57.805 12.7894 57.2148 13.0454 56.7455 13.5574C56.2762 14.0552 56.0415 14.7876 56.0415 15.7547C56.0415 16.7076 56.269 17.44 56.7242 17.952C57.1935 18.464 57.7766 18.72 58.4735 18.72Z" fill="#EEEEEE"/>
<path d="M68.4728 8.56532C67.8328 8.56532 67.3066 8.38042 66.8942 8.01065C66.4959 7.62665 66.2969 7.15732 66.2969 6.60265C66.2969 6.03376 66.4959 5.56442 66.8942 5.19465C67.3066 4.81065 67.8328 4.61865 68.4728 4.61865C69.0986 4.61865 69.6106 4.81065 70.0089 5.19465C70.4212 5.56442 70.6275 6.03376 70.6275 6.60265C70.6275 7.15732 70.4212 7.62665 70.0089 8.01065C69.6106 8.38042 69.0986 8.56532 68.4728 8.56532ZM70.2862 9.80265V21.7067H66.6382V9.80265H70.2862Z" fill="#EEEEEE"/>
<path d="M80.1831 9.67468C81.577 9.67468 82.6863 10.1298 83.5111 11.04C84.3503 11.936 84.7698 13.1734 84.7698 14.752V21.7067H81.1431V15.2427C81.1431 14.4462 80.937 13.8275 80.5245 13.3867C80.1121 12.9458 79.5574 12.7254 78.8605 12.7254C78.1636 12.7254 77.609 12.9458 77.1965 13.3867C76.7841 13.8275 76.5778 14.4462 76.5778 15.2427V21.7067H72.9298V9.80268H76.5778V11.3814C76.9476 10.8552 77.4454 10.4427 78.0712 10.144C78.697 9.83112 79.401 9.67468 80.1831 9.67468Z" fill="#EEEEEE"/>
<path d="M99.0595 9.80267V21.7067H95.4115V20.0854C95.0417 20.6115 94.5368 21.0382 93.8968 21.3654C93.271 21.6782 92.5742 21.8347 91.8062 21.8347C90.896 21.8347 90.0924 21.6355 89.3955 21.2374C88.6986 20.8249 88.1582 20.2347 87.7742 19.4667C87.3902 18.6987 87.1982 17.7955 87.1982 16.7574V9.80267H90.8248V16.2667C90.8248 17.0632 91.031 17.6818 91.4435 18.1227C91.8559 18.5635 92.4106 18.784 93.1075 18.784C93.8186 18.784 94.3804 18.5635 94.7929 18.1227C95.2052 17.6818 95.4115 17.0632 95.4115 16.2667V9.80267H99.0595Z" fill="#EEEEEE"/>
<path d="M105.328 11.488C105.683 10.9334 106.174 10.4854 106.8 10.144C107.426 9.80269 108.158 9.63202 108.997 9.63202C109.979 9.63202 110.867 9.8809 111.664 10.3787C112.461 10.8765 113.086 11.5875 113.541 12.512C114.011 13.4365 114.245 14.5102 114.245 15.7334C114.245 16.9565 114.011 18.0374 113.541 18.976C113.086 19.9005 112.461 20.6187 111.664 21.1307C110.867 21.6285 109.979 21.8774 108.997 21.8774C108.173 21.8774 107.44 21.7067 106.8 21.3654C106.174 21.024 105.683 20.5832 105.328 20.0427V27.3814H101.68V9.80269H105.328V11.488ZM110.533 15.7334C110.533 14.8232 110.277 14.112 109.765 13.6C109.267 13.0738 108.649 12.8107 107.909 12.8107C107.184 12.8107 106.565 13.0738 106.053 13.6C105.555 14.1262 105.306 14.8445 105.306 15.7547C105.306 16.6649 105.555 17.3832 106.053 17.9094C106.565 18.4356 107.184 18.6987 107.909 18.6987C108.635 18.6987 109.253 18.4356 109.765 17.9094C110.277 17.3689 110.533 16.6435 110.533 15.7334Z" fill="#EEEEEE"/>
</svg>
