<svg width="152" height="32" viewBox="0 0 152 32" fill="none" xmlns="http://www.w3.org/2000/svg">
<g clip-path="url(#clip0_33_3)">
<mask id="mask0_33_3" style="mask-type:luminance" maskUnits="userSpaceOnUse" x="0" y="0" width="152" height="32">
<path d="M152 0H0V32H152V0Z" fill="white"/>
</mask>
<g mask="url(#mask0_33_3)">
<path d="M9.64004 30V2.16002H15.92V30H9.64004ZM0.800049 7.24002V1.76001H24.76V7.24002H0.800049ZM32.4184 30.44C30.4184 30.44 28.6052 30 26.9784 29.12C25.3784 28.2134 24.1118 26.9866 23.1784 25.44C22.2452 23.8934 21.7784 22.16 21.7784 20.24C21.7784 18.32 22.2452 16.6 23.1784 15.08C24.1118 13.56 25.3784 12.36 26.9784 11.48C28.5784 10.5734 30.3918 10.12 32.4184 10.12C34.4452 10.12 36.2584 10.56 37.8584 11.44C39.4584 12.32 40.7252 13.5334 41.6584 15.08C42.5918 16.6 43.0584 18.32 43.0584 20.24C43.0584 22.16 42.5918 23.8934 41.6584 25.44C40.7252 26.9866 39.4584 28.2134 37.8584 29.12C36.2584 30 34.4452 30.44 32.4184 30.44ZM32.4184 24.88C33.2984 24.88 34.0718 24.6934 34.7384 24.32C35.4052 23.92 35.9118 23.3734 36.2584 22.68C36.6318 21.96 36.8184 21.1466 36.8184 20.24C36.8184 19.3334 36.6318 18.5467 36.2584 17.88C35.8852 17.1867 35.3652 16.6534 34.6984 16.28C34.0584 15.88 33.2984 15.68 32.4184 15.68C31.5652 15.68 30.8052 15.88 30.1384 16.28C29.4718 16.6534 28.9518 17.1867 28.5784 17.88C28.2052 18.5734 28.0184 19.3734 28.0184 20.28C28.0184 21.16 28.2052 21.96 28.5784 22.68C28.9518 23.3734 29.4718 23.92 30.1384 24.32C30.8052 24.6934 31.5652 24.88 32.4184 24.88ZM46.1054 30V10.56H52.2254V30H46.1054ZM58.5454 30V18.64C58.5454 17.6534 58.2386 16.8934 57.6254 16.36C57.0386 15.8 56.3054 15.52 55.4254 15.52C54.812 15.52 54.2654 15.6534 53.7854 15.92C53.3054 16.16 52.9186 16.5067 52.6254 16.96C52.3586 17.4134 52.2254 17.9734 52.2254 18.64L49.8654 17.6C49.8654 16.0534 50.1986 14.7334 50.8654 13.64C51.532 12.52 52.4386 11.6667 53.5854 11.08C54.732 10.4667 56.0254 10.16 57.4654 10.16C58.8254 10.16 60.0386 10.4667 61.1054 11.08C62.1986 11.6934 63.0654 12.5467 63.7054 13.64C64.3454 14.7334 64.6654 16.04 64.6654 17.56V30H58.5454ZM70.9854 30V18.64C70.9854 17.6534 70.6786 16.8934 70.0654 16.36C69.4786 15.8 68.7454 15.52 67.8654 15.52C67.252 15.52 66.7054 15.6534 66.2254 15.92C65.7454 16.16 65.3586 16.5067 65.0654 16.96C64.7986 17.4134 64.6654 17.9734 64.6654 18.64L61.1454 18.16C61.1986 16.5067 61.5854 15.0934 62.3054 13.92C63.052 12.72 64.0254 11.8 65.2254 11.16C66.452 10.4934 67.8254 10.16 69.3454 10.16C70.8386 10.16 72.1586 10.48 73.3054 11.12C74.4786 11.7334 75.3986 12.6267 76.0654 13.8C76.7586 14.9467 77.1054 16.3334 77.1054 17.96V30H70.9854ZM89.1472 30.4C87.3606 30.4 85.7606 29.96 84.3472 29.08C82.9606 28.2 81.8538 27 81.0272 25.48C80.2272 23.96 79.8272 22.2266 79.8272 20.28C79.8272 18.3334 80.2272 16.6 81.0272 15.08C81.8538 13.56 82.9606 12.36 84.3472 11.48C85.7606 10.6 87.3606 10.16 89.1472 10.16C90.4538 10.16 91.6272 10.4134 92.6672 10.92C93.7338 11.4267 94.6006 12.1334 95.2672 13.04C95.9338 13.92 96.3072 14.9334 96.3872 16.08V24.48C96.3072 25.6266 95.9338 26.6534 95.2672 27.56C94.6272 28.44 93.7738 29.1334 92.7072 29.64C91.6406 30.1466 90.4538 30.4 89.1472 30.4ZM90.3872 24.88C91.6938 24.88 92.7472 24.4534 93.5472 23.6C94.3472 22.72 94.7472 21.6134 94.7472 20.28C94.7472 19.3734 94.5606 18.5734 94.1872 17.88C93.8406 17.1867 93.3338 16.6534 92.6672 16.28C92.0272 15.88 91.2806 15.68 90.4272 15.68C89.5738 15.68 88.8138 15.88 88.1472 16.28C87.5072 16.6534 86.9872 17.1867 86.5872 17.88C86.2138 18.5734 86.0272 19.3734 86.0272 20.28C86.0272 21.16 86.2138 21.9466 86.5872 22.64C86.9606 23.3334 87.4806 23.88 88.1472 24.28C88.8138 24.68 89.5606 24.88 90.3872 24.88ZM94.5072 30V24.76L95.4272 20.04L94.5072 15.32V10.56H100.507V30H94.5072ZM107.576 30V2.52002H113.696V30H107.576ZM103.176 15.76V10.56H118.096V15.76H103.176ZM129.762 30.44C127.762 30.44 125.949 30 124.322 29.12C122.722 28.2134 121.456 26.9866 120.522 25.44C119.589 23.8934 119.122 22.16 119.122 20.24C119.122 18.32 119.589 16.6 120.522 15.08C121.456 13.56 122.722 12.36 124.322 11.48C125.922 10.5734 127.736 10.12 129.762 10.12C131.789 10.12 133.602 10.56 135.202 11.44C136.802 12.32 138.069 13.5334 139.002 15.08C139.936 16.6 140.402 18.32 140.402 20.24C140.402 22.16 139.936 23.8934 139.002 25.44C138.069 26.9866 136.802 28.2134 135.202 29.12C133.602 30 131.789 30.44 129.762 30.44ZM129.762 24.88C130.642 24.88 131.416 24.6934 132.082 24.32C132.749 23.92 133.256 23.3734 133.602 22.68C133.976 21.96 134.162 21.1466 134.162 20.24C134.162 19.3334 133.976 18.5467 133.602 17.88C133.229 17.1867 132.709 16.6534 132.042 16.28C131.402 15.88 130.642 15.68 129.762 15.68C128.909 15.68 128.149 15.88 127.482 16.28C126.816 16.6534 126.296 17.1867 125.922 17.88C125.549 18.5734 125.362 19.3734 125.362 20.28C125.362 21.16 125.549 21.96 125.922 22.68C126.296 23.3734 126.816 23.92 127.482 24.32C128.149 24.6934 128.909 24.88 129.762 24.88ZM146.781 30.44C145.741 30.44 144.875 30.08 144.181 29.36C143.488 28.64 143.141 27.7734 143.141 26.76C143.141 25.6934 143.488 24.8134 144.181 24.12C144.875 23.4 145.741 23.04 146.781 23.04C147.848 23.04 148.715 23.4 149.381 24.12C150.075 24.8134 150.421 25.6934 150.421 26.76C150.421 27.7734 150.075 28.64 149.381 29.36C148.715 30.08 147.848 30.44 146.781 30.44Z" fill="#EEEEEE"/>
</g>
</g>
<defs>
<clipPath id="clip0_33_3">
<rect width="152" height="32" fill="white"/>
</clipPath>
</defs>
</svg>
